<svg xmlns="http://www.w3.org/2000/svg" viewBox="0 0 716.25 442.67"><defs><style>.cls-1{fill:none;}.cls-2{fill:#2d89ff;}</style></defs><title>Asset 4</title><g id="Layer_2" data-name="Layer 2"><g id="Layer_3" data-name="Layer 3"><rect class="cls-1" width="716.25" height="442.67"/><path d="M228.45,188.66l-35.21,98H175.06l-34.59-98h17.77L182.44,263a45.92,45.92,0,0,1,1.78,8.27h.27a43.48,43.48,0,0,1,2-8.41l24.75-74.24Z"/><path class="cls-2" d="M258.12,286.68H241.37v-98h16.75Z"/><path d="M359.08,188.66l-35.21,98H305.69l-34.59-98h17.77L313.08,263a45.92,45.92,0,0,1,1.78,8.27h.27a43.48,43.48,0,0,1,2-8.41l24.75-74.24Z"/><path d="M447.47,247q0,41.29-39.1,41.29-37.46,0-37.46-39.72v-60h16.27v56.6q0,28.85,22.42,28.85,21.6,0,21.6-27.82V188.66h16.27Z"/><path d="M575.78,286.68H559.65V223.25q0-7.79,1-19.07h-.27a65.93,65.93,0,0,1-2.67,9.23l-29.26,73.28H517.2L487.87,214a68.45,68.45,0,0,1-2.6-9.78H485q.55,5.88.55,19.21v63.3h-15v-98h22.9l25.77,65.28A96.78,96.78,0,0,1,523,265.15h.34q2.53-7.72,4.1-11.48l26.25-65h22.08Z"/><path class="cls-2" d="M140.47,171.91V155.16h88v16.75Z"/><path class="cls-2" d="M140.47,138.41V121.67h88v16.75Z"/><path class="cls-2" d="M140.47,104.92V88.17h88v16.75Z"/></g></g></svg>